<?xml version="1.0" encoding="UTF-8"?><svg id="Layer_1" xmlns="http://www.w3.org/2000/svg" viewBox="100 445 860 195" preserveAspectRatio="xMidYMid meet"><defs><style>.cls-1{fill:#193959;}</style></defs><path class="cls-1" d="M308.08,540.19v-.19c0-18.82,14.66-34.23,34.7-34.23,11.91,0,19.1,3.21,26,9.08l-9.17,11.06c-5.11-4.26-9.65-6.71-17.3-6.71-10.59,0-19.01,9.36-19.01,20.61v.19c0,12.1,8.32,20.99,20.05,20.99,5.29,0,10.02-1.32,13.71-3.97v-9.46h-14.66v-12.58h28.75v28.75c-6.81,5.77-16.17,10.5-28.27,10.5-20.61,0-34.8-14.47-34.8-34.04Z"/><path class="cls-1" d="M385.14,506.9h30.26c8.42,0,14.94,2.36,19.29,6.71,3.69,3.69,5.67,8.89,5.67,15.13v.19c0,10.69-5.77,17.4-14.18,20.52l16.17,23.64h-17.02l-14.18-21.18h-11.44v21.18h-14.56v-66.19ZM414.45,539.05c7.09,0,11.16-3.78,11.16-9.36v-.19c0-6.24-4.35-9.46-11.44-9.46h-14.47v19.01h14.75Z"/><path class="cls-1" d="M453.5,506.9h49.93v12.95h-35.46v13.43h31.21v12.96h-31.21v13.9h35.93v12.95h-50.4v-66.19Z"/><path class="cls-1" d="M516.85,506.9h49.93v12.95h-35.46v13.43h31.21v12.96h-31.21v13.9h35.93v12.95h-50.4v-66.19Z"/><path class="cls-1" d="M577.27,540.19v-.19c0-18.82,14.18-34.23,34.51-34.23,12.48,0,19.95,4.16,26.1,10.21l-9.27,10.68c-5.11-4.63-10.31-7.47-16.93-7.47-11.16,0-19.2,9.27-19.2,20.61v.19c0,11.35,7.85,20.8,19.2,20.8,7.57,0,12.2-3.03,17.4-7.75l9.27,9.36c-6.81,7.28-14.37,11.82-27.14,11.82-19.48,0-33.95-15.04-33.95-34.04Z"/><path class="cls-1" d="M649.98,506.9h49.93v12.95h-35.46v13.43h31.21v12.96h-31.21v13.9h35.93v12.95h-50.4v-66.19Z"/><path class="cls-1" d="M707.66,506.9h16.07l17.31,46.62,17.31-46.62h15.7l-26.76,66.66h-12.86l-26.76-66.66Z"/><path class="cls-1" d="M784.24,506.9h49.93v12.95h-35.46v13.43h31.21v12.96h-31.21v13.9h35.93v12.95h-50.4v-66.19Z"/><path class="cls-1" d="M843.06,563.45l8.6-10.31c5.96,4.92,12.2,8.04,19.76,8.04,5.96,0,9.55-2.36,9.55-6.24v-.19c0-3.69-2.27-5.58-13.33-8.42-13.33-3.4-21.94-7.09-21.94-20.24v-.19c0-12.01,9.65-19.95,23.17-19.95,9.65,0,17.87,3.03,24.59,8.42l-7.57,10.97c-5.86-4.07-11.63-6.52-17.21-6.52s-8.51,2.55-8.51,5.77v.19c0,4.35,2.84,5.77,14.28,8.7,13.43,3.5,20.99,8.32,20.99,19.86v.19c0,13.14-10.02,20.52-24.3,20.52-10.02,0-20.14-3.5-28.08-10.59Z"/><path class="cls-1" d="M922.11,520.33h-20.14v-13.43h54.85v13.43h-20.14v52.76h-14.56v-52.76Z"/><path class="cls-1" d="M152.76,472.44l35.99,35.95.03-54.52h26.49s.06,54.48.06,54.48l35.94-35.89,18.75,18.75-27.05,27.11,37.53.06v26.51s-33.92,0-33.92,0c-12.65-.39-24.41-5.49-33.33-14.38-6.02-6.15-16.05-6.46-22.22-.33-8.81,8.75-20.18,14.07-32.72,14.66h-34.82s0-26.45,0-26.45l37.52-.09-27.04-27.1,18.77-18.78Z"/><path class="cls-1" d="M238.08,607.17l-5.2,18.96-90.78-25.09,2.5-19.29,7.75.07,14.76-.36c1.2-.03,2.27.31,3.59-.05l-47.49-9.36v-19.47s157.62,0,157.62,0l-.06,19.69h-54.58s42.27,8.51,42.27,8.51l-1.83,19.43-51.56.51,23.02,6.46Z"/></svg>